<?xml version="1.0" encoding="iso-8859-1"?>
<!-- Generator: Adobe Illustrator 19.0.0, SVG Export Plug-In . SVG Version: 6.00 Build 0)  -->
<svg version="1.1" id="Capa_1" xmlns="http://www.w3.org/2000/svg" xmlns:xlink="http://www.w3.org/1999/xlink" x="0px" y="0px"
	 viewBox="0 0 414.824 414.824" style="enable-background:new 0 0 414.824 414.824;" xml:space="preserve">
<g>
	<g>
		<g>
			<path d="M404.898,115.723l-78.89-78.89c-12.963-12.541-33.535-12.541-46.498,0L114.939,201.405l125.388,125.388l164.571-164.571
				c6.287-6.216,9.856-14.669,9.927-23.51C414.79,130.015,411.205,121.711,404.898,115.723z"/>
			<path d="M306.155,371.723H196.441l32.914-33.437l-125.388-125.91l-49.11,49.11c-12.606,13.139-12.606,33.881,0,47.02
				l62.694,63.216H7.837c-4.328,0-7.837,3.509-7.837,7.837s3.509,7.837,7.837,7.837h298.318c4.328,0,7.837-3.509,7.837-7.837
				S310.483,371.723,306.155,371.723z"/>
		</g>
	</g>
</g>
<g>
</g>
<g>
</g>
<g>
</g>
<g>
</g>
<g>
</g>
<g>
</g>
<g>
</g>
<g>
</g>
<g>
</g>
<g>
</g>
<g>
</g>
<g>
</g>
<g>
</g>
<g>
</g>
<g>
</g>
</svg>
