<svg height="412pt" viewBox="0 0 412 412.5412" width="412pt" xmlns="http://www.w3.org/2000/svg"><path d="m393.453125 339.550781c-5.304687-17.050781-14.667969-32.558593-27.28125-45.199219l-265.644531-265.644531c-3.90625-3.902343-10.238282-3.902343-14.140625 0l-1.484375 1.484375-20.992188-21.261718c-5.636718-5.710938-13.328125-8.929688-21.355468-8.929688-8.027344 0-15.71875 3.21875-21.355469 8.929688l-12.316407 12.484374c-11.539062 11.757813-11.472656 30.605469.144532 42.285157l21.109375 21.109375-7.765625 7.679687c-9.464844 9.359375-14.808594 22.105469-14.84375 35.414063-.039063 13.308594 5.230468 26.082031 14.640625 35.496094l80.035156 80.03125c3.90625 3.90625 10.238281 3.90625 14.144531 0 3.902344-3.902344 3.902344-10.234376-.003906-14.140626l-80.03125-80.035156c-11.453125-11.449218-11.746094-29.925781-.664062-41.730468l119.71875 119.71875 21.863281 21.867187 14.148437 14.140625 102.945313 102.945312c12.636719 12.617188 28.148437 21.976563 45.199219 27.285157l60.027343 18.613281c3.542969 1.097656 7.40625.144531 10.03125-2.480469s3.578125-6.488281 2.480469-10.035156zm-370.332031-304.089843 12.3125-12.484376c1.878906-1.90625 4.445312-2.976562 7.121094-2.976562 2.675781 0 5.242187 1.070312 7.121093 2.976562l21.082031 21.355469-26.398437 26.40625-21.191406-21.183593c-3.871094-3.890626-3.894531-10.175782-.046875-14.09375zm26.777344 58.023437 43.558593-43.5625 106.128907 106.128906-43.5625 43.5625zm120.269531 120.269531 43.558593-43.5625 21.214844 21.214844-43.5625 43.5625zm35.355469 35.355469 43.5625-43.5625 102.941406 102.945313c1.039062 1.042968 2.050781 2.113281 3.035156 3.207031l-43.390625 43.390625c-1.089844-.988282-2.164063-2-3.199219-3.035156zm139.925781 125.265625c-6.019531-1.871094-11.824219-4.367188-17.324219-7.453125l38.769531-38.769531c3.085938 5.496094 5.585938 11.304687 7.457031 17.324218l12.988282 41.886719zm0 0"/></svg>