<svg height="367pt" viewBox="0 0 367 367.36171" width="367pt" xmlns="http://www.w3.org/2000/svg"><path d="m150.097656 193.75 43.558594-43.558594 21.214844 21.210938-43.5625 43.558594zm0 0"/><path d="m29.609375 2.980469c-1.878906-1.90625-4.445313-2.980469-7.121094-2.980469s-5.242187 1.074219-7.121093 2.980469l-12.3125 12.476562c-3.851563 3.917969-3.828126 10.207031.046874 14.101563l21.1875 21.179687 26.40625-26.40625zm0 0"/><path d="m331.960938 288.488281-102.945313-102.945312-43.558594 43.5625 102.945313 102.941406c1.039062 1.042969 2.113281 2.050781 3.199218 3.039063l43.390626-43.394532c-.980469-1.089844-1.988282-2.164062-3.03125-3.203125zm0 0"/><path d="m346.828125 308.148438-38.769531 38.769531c5.496094 3.085937 11.304687 5.582031 17.324218 7.453125l41.886719 12.992187-12.988281-41.890625c-1.871094-6.019531-4.367188-11.828125-7.453125-17.324218zm0 0"/><path d="m56.246094 129.25c-9.195313-9.199219-11.417969-23.277344-5.507813-34.863281l85.222657 85.21875 43.558593-43.558594-106.128906-106.128906-43.5625 43.5625 6.34375 6.339843c-13.566406 19.863282-11.074219 46.5625 5.929687 63.574219l80.035157 80.03125c3.90625 3.90625 10.238281 3.90625 14.140625 0 3.90625-3.902343 3.90625-10.234375 0-14.140625zm0 0"/></svg>